<?xml version="1.0" standalone="no"?>
<!DOCTYPE svg PUBLIC "-//W3C//DTD SVG 20010904//EN"
 "http://www.w3.org/TR/2001/REC-SVG-20010904/DTD/svg10.dtd">
<svg version="1.0" xmlns="http://www.w3.org/2000/svg"
 width="500.000000pt" height="500.000000pt" viewBox="0 0 500.000000 500.000000"
 preserveAspectRatio="xMidYMid meet">

<g transform="translate(0.000000,500.000000) scale(0.100000,-0.100000)"
fill="#000000" stroke="none">
<path d="M1998 3429 c-21 -12 -24 -44 -5 -56 6 -4 52 -14 101 -23 l88 -16 34
-84 c118 -291 243 -624 237 -630 -4 -3 -32 -25 -60 -49 -39 -32 -55 -53 -64
-83 -12 -48 1 -91 37 -114 l22 -15 -24 -24 c-33 -33 -32 -77 2 -104 35 -27 59
-26 89 4 29 28 32 61 9 93 l-15 22 311 0 311 0 -15 -22 c-54 -76 47 -157 107
-86 21 25 22 57 1 86 -15 21 -14 22 19 22 38 0 61 19 52 42 -8 21 -88 26 -484
27 -184 1 -338 4 -343 7 -4 3 -8 16 -8 29 0 30 128 132 174 139 90 13 211 26
291 31 50 4 106 8 125 10 19 2 74 7 123 11 48 3 90 10 93 15 3 5 17 106 32
225 25 200 25 217 10 228 -10 7 -58 13 -115 15 -54 1 -255 8 -446 14 l-348 12
-45 115 c-25 63 -50 120 -57 127 -11 11 -102 30 -187 38 -19 2 -43 -1 -52 -6z
m482 -399 l0 -60 -33 0 c-31 0 -34 3 -55 60 l-21 60 54 0 55 0 0 -60z m106 50
l44 0 0 -55 0 -55 -60 0 -60 0 0 61 c0 52 2 60 16 55 9 -3 36 -6 60 -6z m194
-55 l0 -55 -60 0 -60 0 0 55 0 55 60 0 60 0 0 -55z m150 0 l0 -55 -60 0 -60 0
0 55 0 55 60 0 60 0 0 -55z m150 -5 c0 -67 -1 -67 -82 -54 -38 7 -38 7 -38 55
0 52 3 55 83 58 l37 1 0 -60z m128 46 c2 -2 0 -27 -4 -55 l-7 -51 -48 0 -49 0
0 60 0 61 52 -6 c29 -3 54 -8 56 -9z m-128 -186 l0 -60 -65 0 c-72 0 -71 -1
-59 72 7 40 15 44 87 47 l37 1 0 -60z m110 23 c0 -71 -8 -83 -51 -83 l-39 0 0
60 0 60 45 0 45 0 0 -37z m-710 -30 c0 -31 -2 -54 -4 -52 -2 2 -13 28 -24 57
l-20 52 24 0 c23 0 24 -3 24 -57z m150 2 l0 -55 -60 0 -60 0 0 55 0 55 60 0
60 0 0 -55z m150 0 l0 -55 -60 0 -60 0 0 55 0 55 60 0 60 0 0 -55z m150 0 l0
-55 -60 0 -60 0 0 55 0 55 60 0 60 0 0 -55z m0 -128 l0 -54 -66 -2 c-58 -2
-66 0 -60 14 3 9 6 32 6 50 0 31 3 34 33 38 90 11 87 13 87 -46z m150 9 c0
-49 -10 -56 -87 -56 l-43 0 0 43 c0 24 3 47 7 50 3 4 33 7 65 7 l58 0 0 -44z
m94 7 c-8 -50 -10 -53 -45 -53 -27 0 -29 3 -29 38 0 47 4 52 47 52 32 0 33 0
27 -37z m-544 -27 c0 -52 -1 -54 -31 -60 -56 -11 -67 -7 -78 25 -6 18 -11 45
-11 60 0 29 1 29 60 29 l60 0 0 -54z m150 2 l0 -53 -60 -2 -60 -2 0 54 0 55
60 0 60 0 0 -52z m-336 -430 c13 -19 14 -25 2 -43 -7 -11 -24 -20 -36 -20 -12
0 -29 9 -36 20 -12 18 -11 24 2 43 8 12 24 22 34 22 10 0 26 -10 34 -22z m703
-4 c12 -19 11 -24 -5 -44 -38 -46 -99 1 -65 50 18 26 50 23 70 -6z"/>
<path d="M2392 2283 c2 -10 10 -18 18 -18 8 0 16 8 18 18 2 12 -3 17 -18 17
-15 0 -20 -5 -18 -17z"/>
<path d="M3092 2283 c2 -10 10 -18 18 -18 8 0 16 8 18 18 2 12 -3 17 -18 17
-15 0 -20 -5 -18 -17z"/>
<path d="M1195 2038 c-64 -35 -89 -93 -62 -144 8 -16 41 -43 78 -64 51 -29 64
-41 64 -60 0 -40 -44 -49 -101 -21 -26 12 -48 21 -49 19 -1 -2 -10 -18 -19
-35 l-16 -32 42 -22 c33 -17 54 -20 111 -17 63 3 72 7 98 36 21 23 29 43 29
70 0 51 -21 77 -89 111 -71 36 -88 55 -71 76 14 17 72 20 100 5 16 -9 22 -5
36 21 18 36 14 42 -46 59 -45 13 -80 12 -105 -2z"/>
<path d="M2746 2036 c-21 -8 -54 -29 -72 -47 -131 -127 -39 -329 150 -329 31
0 70 7 86 15 l30 15 -17 35 c-13 28 -19 32 -34 24 -29 -15 -102 -10 -135 10
-63 38 -70 128 -13 175 37 31 88 42 130 27 18 -6 33 -10 34 -9 2 2 10 18 19
36 17 32 17 32 -11 43 -47 18 -125 20 -167 5z"/>
<path d="M1390 2030 c0 -6 23 -92 51 -190 l52 -180 46 0 47 0 28 105 c16 58
32 105 35 105 4 0 19 -47 35 -105 l28 -105 47 0 47 0 48 173 c27 94 51 180 54
190 4 14 -3 17 -41 17 l-45 0 -32 -131 c-19 -76 -36 -126 -40 -118 -4 8 -17
52 -29 99 -40 154 -39 152 -74 148 -31 -3 -31 -3 -64 -127 -17 -68 -34 -125
-37 -128 -5 -6 -9 6 -41 145 l-27 112 -44 0 c-24 0 -44 -5 -44 -10z"/>
<path d="M1940 1850 l0 -190 40 0 40 0 0 190 0 190 -40 0 -40 0 0 -190z"/>
<path d="M2090 1850 l0 -190 40 0 40 0 0 80 0 80 60 0 60 0 0 35 0 35 -60 0
-60 0 0 40 0 40 65 0 65 0 0 35 0 35 -105 0 -105 0 0 -190z"/>
<path d="M2320 2005 l0 -35 50 0 50 0 0 -155 0 -155 40 0 40 0 0 155 0 155 45
0 c45 0 45 0 45 35 l0 35 -135 0 -135 0 0 -35z"/>
<path d="M3081 2018 c-5 -13 -37 -93 -71 -178 -34 -85 -64 -161 -67 -167 -4
-9 8 -13 41 -13 44 0 45 1 57 40 l12 40 77 0 77 0 13 -40 c13 -39 15 -40 57
-40 53 0 57 -21 -37 206 l-69 169 -40 3 c-35 3 -42 0 -50 -20z m73 -145 c22
-63 22 -63 -24 -63 -22 0 -40 3 -40 8 0 16 34 102 41 102 4 0 14 -21 23 -47z"/>
<path d="M3350 1850 l0 -190 40 0 39 0 3 75 3 76 58 -76 58 -75 50 0 c27 0 49
2 49 4 0 2 -27 37 -60 76 -59 71 -70 90 -50 90 6 0 22 11 35 25 19 19 25 35
25 70 0 90 -36 115 -165 115 l-85 0 0 -190z m150 110 c11 -11 20 -27 20 -35 0
-23 -37 -55 -65 -55 -24 0 -25 3 -25 55 0 52 1 55 25 55 14 0 34 -9 45 -20z"/>
<path d="M3650 2005 l0 -35 50 0 50 0 0 -155 0 -155 40 0 40 0 0 155 0 155 45
0 c45 0 45 0 45 35 l0 35 -135 0 -135 0 0 -35z"/>
<path d="M1784 1498 c7 -13 24 -51 37 -85 13 -35 28 -63 32 -63 5 0 16 19 25
43 9 23 26 61 38 85 l21 42 -22 0 c-17 0 -22 -5 -19 -17 6 -22 -29 -115 -42
-113 -14 3 -46 91 -41 112 4 14 -1 18 -19 18 -23 0 -24 -1 -10 -22z"/>
<path d="M2528 1508 c7 -7 12 -39 12 -73 0 -34 -5 -66 -12 -73 -9 -9 -5 -12
18 -11 16 0 23 3 17 6 -9 3 -13 30 -13 84 0 68 -2 79 -17 79 -13 0 -14 -3 -5
-12z"/>
<path d="M2694 1512 c-37 -26 -18 -65 41 -84 29 -10 40 -19 40 -33 0 -30 -51
-33 -81 -4 l-24 22 0 -34 c0 -20 3 -29 8 -22 6 10 15 10 39 1 43 -16 83 1 83
37 0 18 -8 28 -27 36 -84 33 -100 52 -59 71 23 10 29 8 51 -12 l25 -23 0 24
c0 21 -5 24 -43 26 -23 2 -47 0 -53 -5z"/>
<path d="M2828 1513 c8 -3 12 -29 12 -78 0 -49 -4 -75 -12 -78 -7 -3 0 -6 17
-6 19 -1 26 2 19 9 -5 5 -8 28 -6 50 4 38 6 41 31 38 23 -3 26 -8 29 -50 2
-37 7 -48 20 -48 12 0 13 3 4 12 -7 7 -12 29 -12 49 0 42 -20 64 -50 54 -16
-5 -20 -2 -21 17 -1 13 -1 26 0 31 0 4 -9 7 -21 6 -13 0 -17 -3 -10 -6z"/>
<path d="M1980 1490 c0 -5 5 -10 10 -10 6 0 10 5 10 10 0 6 -4 10 -10 10 -5 0
-10 -4 -10 -10z"/>
<path d="M2151 1473 c-9 -10 -10 -17 -3 -22 6 -3 12 -27 14 -51 2 -38 7 -46
26 -48 12 -2 22 1 22 6 0 5 -8 9 -17 8 -14 -1 -19 8 -21 42 -2 33 0 42 12 42
9 0 16 5 16 10 0 6 -6 10 -14 10 -8 0 -16 4 -18 9 -1 5 -9 2 -17 -6z"/>
<path d="M1975 1410 c0 -47 3 -60 15 -60 12 0 14 12 12 60 -5 81 -27 81 -27 0z"/>
<path d="M2045 1410 c0 -47 3 -60 15 -60 11 0 15 11 15 42 0 35 4 45 23 53 12
5 22 14 22 19 0 4 -11 1 -24 -7 -21 -14 -25 -14 -30 -2 -12 32 -21 12 -21 -45z"/>
<path d="M2230 1460 c0 -5 4 -10 9 -10 6 0 11 -19 13 -41 4 -50 27 -71 58 -51
12 7 20 8 20 2 0 -5 8 -10 18 -9 10 0 12 3 5 6 -8 3 -13 25 -13 59 0 41 -4 54
-15 54 -8 0 -15 -4 -15 -10 0 -5 5 -10 10 -10 6 0 10 -16 10 -35 0 -24 -6 -37
-21 -45 -31 -17 -49 4 -49 56 0 32 -4 44 -15 44 -8 0 -15 -4 -15 -10z"/>
<path d="M2400 1460 c-11 -7 -6 -10 21 -10 53 0 59 -26 8 -34 -45 -7 -60 -30
-35 -54 13 -14 21 -14 46 -5 17 6 30 7 30 2 0 -5 8 -9 18 -8 10 0 12 3 5 6 -8
3 -13 23 -13 48 0 34 -5 47 -19 55 -24 12 -42 13 -61 0z m66 -62 c8 -12 -22
-38 -43 -38 -20 0 -28 30 -12 41 20 12 47 11 55 -3z"/>
<path d="M3007 1463 c-24 -6 -39 -47 -28 -77 9 -23 29 -36 57 -36 21 0 54 37
54 60 0 23 -34 61 -52 59 -7 -1 -21 -3 -31 -6z m44 -13 c33 -18 20 -90 -17
-90 -19 0 -44 29 -44 50 0 17 24 50 36 50 3 0 14 -5 25 -10z"/>
<path d="M3110 1460 c0 -5 5 -10 10 -10 15 0 13 -137 -2 -143 -7 -3 1 -5 17
-5 17 0 24 2 18 5 -7 2 -13 18 -13 34 0 26 2 28 24 18 39 -18 66 3 66 51 0 48
-27 69 -66 51 -15 -6 -24 -7 -24 -1 0 6 -7 10 -15 10 -8 0 -15 -4 -15 -10z
m94 -16 c22 -21 20 -61 -3 -74 -27 -14 -50 -3 -58 28 -4 19 -1 30 17 44 27 22
25 22 44 2z"/>
</g>
</svg>
